<?xml version="1.0" encoding="UTF-8"?>
<svg width="752pt" height="752pt" version="1.1" viewBox="0 0 752 752" xmlns="http://www.w3.org/2000/svg">
 <defs>
  <clipPath id="b">
   <path d="m168 139.21h356v414.79h-356z"/>
  </clipPath>
  <clipPath id="a">
   <path d="m227 198h357v414.79h-357z"/>
  </clipPath>
 </defs>
 <g>
  <g clip-path="url(#b)">
   <path d="m198.39 553.59h295.99c16.352 0 29.613-13.246 29.613-29.598v-355.19c0-16.352-13.262-29.598-29.613-29.598h-207.19l-118.38 118.39v266.39c0 16.352 13.23 29.598 29.586 29.598zm29.598-295.99h59.211v-59.195l29.598-29.598v118.39l-118.41-0.003906z"/>
  </g>
  <g clip-path="url(#a)">
   <path d="m553.59 198.41v384.79l-325.6-0.003906c0 16.352 13.246 29.598 29.598 29.598h295.99c16.355 0.003907 29.613-13.242 29.613-29.598v-355.18c0-16.355 0-29.598-29.598-29.598z"/>
  </g>
 </g>
</svg>
